<svg xmlns="http://www.w3.org/2000/svg" viewBox="0 0 24 24" fill="none">
  <path d="M16.4 7.6c-.6-.9-1.8-1.5-3.3-1.5-1.8 0-3.1.8-3.1 2.1 0 1.4 1.2 1.8 3.2 2.3 2.4.6 4.5 1.3 4.5 3.8 0 2.5-2.2 4.2-5.2 4.2-2.2 0-4-.7-5.1-1.9" stroke="#111111" stroke-width="1.9" stroke-linecap="round" stroke-linejoin="round"/>
  <path d="M7.8 16.6c.8.8 1.9 1.2 3.3 1.2 1.7 0 2.9-.8 2.9-2 0-1.4-1.2-1.8-3.1-2.3-2.5-.6-4.5-1.3-4.5-3.8 0-2.5 2.2-4.1 5.1-4.1 1.9 0 3.5.5 4.6 1.5" stroke="#111111" stroke-width="1.9" stroke-linecap="round" stroke-linejoin="round"/>
  <path d="M4.5 12h15" stroke="#111111" stroke-width="2.1" stroke-linecap="round"/>
</svg>
